<mxfile host="app.diagrams.net" modified="2023-06-17T17:04:37.008Z" agent="Mozilla/5.0 (Windows NT 10.0; Win64; x64) AppleWebKit/537.36 (KHTML, like Gecko) Chrome/113.0.0.0 Safari/537.36 OPR/99.0.0.0" etag="R9JHaI4jFA5ewdOSm5Yh" version="21.4.0" type="github">
  <diagram name="Page-1" id="L3jArq6J0F_VoiQkwB9n">
    <mxGraphModel dx="2522" dy="938" grid="1" gridSize="10" guides="1" tooltips="1" connect="1" arrows="1" fold="1" page="1" pageScale="1" pageWidth="827" pageHeight="1169" math="0" shadow="0">
      <root>
        <mxCell id="0" />
        <mxCell id="1" parent="0" />
        <mxCell id="9Peq9ZwE4s5D_hsLS-z3-54" value="" style="rounded=0;whiteSpace=wrap;html=1;" parent="1" vertex="1">
          <mxGeometry x="-700" y="200" width="400" height="300" as="geometry" />
        </mxCell>
        <mxCell id="9Peq9ZwE4s5D_hsLS-z3-1" value="" style="whiteSpace=wrap;html=1;aspect=fixed;" parent="1" vertex="1">
          <mxGeometry x="-270" y="240" width="440" height="440" as="geometry" />
        </mxCell>
        <mxCell id="9Peq9ZwE4s5D_hsLS-z3-48" style="edgeStyle=orthogonalEdgeStyle;rounded=0;orthogonalLoop=1;jettySize=auto;html=1;entryX=0;entryY=0.5;entryDx=0;entryDy=0;fillColor=#60a917;strokeColor=#2D7600;" parent="1" source="9Peq9ZwE4s5D_hsLS-z3-2" target="9Peq9ZwE4s5D_hsLS-z3-47" edge="1">
          <mxGeometry relative="1" as="geometry" />
        </mxCell>
        <mxCell id="9Peq9ZwE4s5D_hsLS-z3-2" value="Actor" style="shape=umlActor;verticalLabelPosition=bottom;verticalAlign=top;html=1;" parent="1" vertex="1">
          <mxGeometry x="-670" y="270" width="30" height="60" as="geometry" />
        </mxCell>
        <mxCell id="9Peq9ZwE4s5D_hsLS-z3-10" value="Actor" style="shape=umlActor;verticalLabelPosition=bottom;verticalAlign=top;html=1;" parent="1" vertex="1">
          <mxGeometry x="-670" y="540" width="30" height="60" as="geometry" />
        </mxCell>
        <mxCell id="9Peq9ZwE4s5D_hsLS-z3-20" value="Commerçant" style="text;html=1;strokeColor=none;fillColor=none;align=center;verticalAlign=middle;whiteSpace=wrap;rounded=0;" parent="1" vertex="1">
          <mxGeometry x="-685" y="240" width="60" height="30" as="geometry" />
        </mxCell>
        <mxCell id="9Peq9ZwE4s5D_hsLS-z3-21" value="Client" style="text;html=1;strokeColor=none;fillColor=none;align=center;verticalAlign=middle;whiteSpace=wrap;rounded=0;" parent="1" vertex="1">
          <mxGeometry x="-685" y="510" width="60" height="30" as="geometry" />
        </mxCell>
        <mxCell id="9Peq9ZwE4s5D_hsLS-z3-22" value="Flux" style="text;html=1;strokeColor=#B09500;fillColor=#e3c800;align=center;verticalAlign=middle;whiteSpace=wrap;rounded=0;fontColor=#000000;" parent="1" vertex="1">
          <mxGeometry x="-250" y="250" width="60" height="30" as="geometry" />
        </mxCell>
        <mxCell id="9Peq9ZwE4s5D_hsLS-z3-25" value="" style="rounded=1;whiteSpace=wrap;html=1;" parent="1" vertex="1">
          <mxGeometry x="-170" y="260" width="330" height="210" as="geometry" />
        </mxCell>
        <mxCell id="9Peq9ZwE4s5D_hsLS-z3-24" value="Interface Commerçant" style="text;html=1;strokeColor=#2D7600;fillColor=#60a917;align=center;verticalAlign=middle;whiteSpace=wrap;rounded=0;fontColor=#ffffff;" parent="1" vertex="1">
          <mxGeometry x="-150" y="270" width="130" height="30" as="geometry" />
        </mxCell>
        <mxCell id="9Peq9ZwE4s5D_hsLS-z3-26" value="" style="rounded=1;whiteSpace=wrap;html=1;" parent="1" vertex="1">
          <mxGeometry x="-170" y="490" width="330" height="150" as="geometry" />
        </mxCell>
        <mxCell id="9Peq9ZwE4s5D_hsLS-z3-27" value="Interface Client" style="text;html=1;strokeColor=#006EAF;fillColor=#1ba1e2;align=center;verticalAlign=middle;whiteSpace=wrap;rounded=0;fontColor=#ffffff;" parent="1" vertex="1">
          <mxGeometry x="-140" y="500" width="90" height="30" as="geometry" />
        </mxCell>
        <mxCell id="9Peq9ZwE4s5D_hsLS-z3-29" value="Flux (contient une liste de tickets)" style="rounded=1;whiteSpace=wrap;html=1;" parent="1" vertex="1">
          <mxGeometry x="-130" y="320" width="250" height="40" as="geometry" />
        </mxCell>
        <mxCell id="9Peq9ZwE4s5D_hsLS-z3-52" style="edgeStyle=orthogonalEdgeStyle;rounded=0;orthogonalLoop=1;jettySize=auto;html=1;entryX=0.5;entryY=0;entryDx=0;entryDy=0;fillColor=#60a917;strokeColor=#2D7600;" parent="1" source="9Peq9ZwE4s5D_hsLS-z3-30" target="9Peq9ZwE4s5D_hsLS-z3-35" edge="1">
          <mxGeometry relative="1" as="geometry" />
        </mxCell>
        <mxCell id="9Peq9ZwE4s5D_hsLS-z3-30" value="Tickets (Liste de tickets d&#39;un flux)" style="rounded=1;whiteSpace=wrap;html=1;" parent="1" vertex="1">
          <mxGeometry x="-130" y="390" width="250" height="40" as="geometry" />
        </mxCell>
        <mxCell id="9Peq9ZwE4s5D_hsLS-z3-31" value="Ticket du client" style="rounded=1;whiteSpace=wrap;html=1;" parent="1" vertex="1">
          <mxGeometry x="-125" y="550" width="240" height="40" as="geometry" />
        </mxCell>
        <mxCell id="9Peq9ZwE4s5D_hsLS-z3-53" style="edgeStyle=orthogonalEdgeStyle;rounded=0;orthogonalLoop=1;jettySize=auto;html=1;entryX=1;entryY=0.5;entryDx=0;entryDy=0;fillColor=#60a917;strokeColor=#2D7600;" parent="1" source="9Peq9ZwE4s5D_hsLS-z3-35" target="9Peq9ZwE4s5D_hsLS-z3-31" edge="1">
          <mxGeometry relative="1" as="geometry">
            <Array as="points">
              <mxPoint x="260" y="570" />
            </Array>
          </mxGeometry>
        </mxCell>
        <mxCell id="9Peq9ZwE4s5D_hsLS-z3-35" value="Accède au statut de son ticket" style="whiteSpace=wrap;html=1;strokeColor=#FFFF33;" parent="1" vertex="1">
          <mxGeometry x="200" y="460" width="120" height="60" as="geometry" />
        </mxCell>
        <mxCell id="9Peq9ZwE4s5D_hsLS-z3-39" style="edgeStyle=orthogonalEdgeStyle;rounded=0;orthogonalLoop=1;jettySize=auto;html=1;fillColor=#60a917;strokeColor=#2D7600;" parent="1" source="9Peq9ZwE4s5D_hsLS-z3-49" target="9Peq9ZwE4s5D_hsLS-z3-29" edge="1">
          <mxGeometry relative="1" as="geometry">
            <Array as="points">
              <mxPoint x="-320" y="300" />
              <mxPoint x="-320" y="340" />
            </Array>
          </mxGeometry>
        </mxCell>
        <mxCell id="9Peq9ZwE4s5D_hsLS-z3-44" style="edgeStyle=orthogonalEdgeStyle;rounded=0;orthogonalLoop=1;jettySize=auto;html=1;exitX=1;exitY=0.5;exitDx=0;exitDy=0;fillColor=#60a917;strokeColor=#2D7600;" parent="1" source="9Peq9ZwE4s5D_hsLS-z3-47" target="9Peq9ZwE4s5D_hsLS-z3-30" edge="1">
          <mxGeometry relative="1" as="geometry">
            <mxPoint x="-340" y="410" as="sourcePoint" />
          </mxGeometry>
        </mxCell>
        <mxCell id="9Peq9ZwE4s5D_hsLS-z3-47" value="Ajouter/Supprimer/Modifier des tickets" style="rounded=0;whiteSpace=wrap;html=1;strokeColor=#FFFF33;" parent="1" vertex="1">
          <mxGeometry x="-504" y="410" width="180" height="60" as="geometry" />
        </mxCell>
        <mxCell id="9Peq9ZwE4s5D_hsLS-z3-50" value="" style="edgeStyle=orthogonalEdgeStyle;rounded=0;orthogonalLoop=1;jettySize=auto;html=1;fillColor=#60a917;strokeColor=#2D7600;" parent="1" source="9Peq9ZwE4s5D_hsLS-z3-2" target="9Peq9ZwE4s5D_hsLS-z3-49" edge="1">
          <mxGeometry relative="1" as="geometry">
            <mxPoint x="-640" y="300" as="sourcePoint" />
            <mxPoint x="-130" y="340" as="targetPoint" />
            <Array as="points" />
          </mxGeometry>
        </mxCell>
        <mxCell id="9Peq9ZwE4s5D_hsLS-z3-49" value="Ajouter/Supprimer un flux" style="rounded=0;whiteSpace=wrap;html=1;strokeColor=#FFFF33;" parent="1" vertex="1">
          <mxGeometry x="-490" y="270" width="126" height="60" as="geometry" />
        </mxCell>
        <mxCell id="9Peq9ZwE4s5D_hsLS-z3-51" value="" style="edgeStyle=orthogonalEdgeStyle;rounded=0;orthogonalLoop=1;jettySize=auto;html=1;entryX=0;entryY=0.5;entryDx=0;entryDy=0;fillColor=#60a917;strokeColor=#2D7600;" parent="1" source="9Peq9ZwE4s5D_hsLS-z3-10" target="9Peq9ZwE4s5D_hsLS-z3-34" edge="1">
          <mxGeometry relative="1" as="geometry">
            <mxPoint x="-640" y="570" as="sourcePoint" />
            <mxPoint x="-258" y="611" as="targetPoint" />
          </mxGeometry>
        </mxCell>
        <mxCell id="9Peq9ZwE4s5D_hsLS-z3-34" value="Accède à son ticket" style="rounded=0;whiteSpace=wrap;html=1;strokeColor=#FFFF33;" parent="1" vertex="1">
          <mxGeometry x="-460" y="540" width="120" height="60" as="geometry" />
        </mxCell>
        <mxCell id="9Peq9ZwE4s5D_hsLS-z3-18" style="edgeStyle=orthogonalEdgeStyle;rounded=0;orthogonalLoop=1;jettySize=auto;html=1;entryX=0;entryY=0.5;entryDx=0;entryDy=0;fillColor=#60a917;strokeColor=#2D7600;" parent="1" source="9Peq9ZwE4s5D_hsLS-z3-34" target="9Peq9ZwE4s5D_hsLS-z3-31" edge="1">
          <mxGeometry relative="1" as="geometry" />
        </mxCell>
        <mxCell id="9Peq9ZwE4s5D_hsLS-z3-55" value="Utilisateur Authentifié" style="text;html=1;strokeColor=none;fillColor=none;align=center;verticalAlign=middle;whiteSpace=wrap;rounded=0;" parent="1" vertex="1">
          <mxGeometry x="-530" y="210" width="60" height="30" as="geometry" />
        </mxCell>
        <mxCell id="sWzu_hCgYZbUVSwposO9-1" value="Text" style="text;html=1;strokeColor=none;fillColor=none;align=center;verticalAlign=middle;whiteSpace=wrap;rounded=0;" vertex="1" parent="1">
          <mxGeometry x="-230" y="450" width="60" height="30" as="geometry" />
        </mxCell>
        <mxCell id="sWzu_hCgYZbUVSwposO9-2" value="&lt;font style=&quot;font-size: 16px;&quot;&gt;Use Case&lt;/font&gt;" style="text;html=1;strokeColor=none;fillColor=none;align=center;verticalAlign=middle;whiteSpace=wrap;rounded=0;" vertex="1" parent="1">
          <mxGeometry x="-309" y="100" width="184" height="60" as="geometry" />
        </mxCell>
      </root>
    </mxGraphModel>
  </diagram>
</mxfile>
